<mxfile host="app.diagrams.net" modified="2022-05-17T12:14:12.752Z" agent="5.0 (Windows NT 10.0; Win64; x64) AppleWebKit/537.36 (KHTML, like Gecko) Chrome/101.0.4951.64 Safari/537.36" etag="lKyUxu7kGFLb96FgRf-9" version="18.0.2" type="github">
  <diagram id="anVFt4ykGYceNuziveZ1" name="Page-1">
    <mxGraphModel dx="2586" dy="1944" grid="1" gridSize="10" guides="1" tooltips="1" connect="1" arrows="1" fold="1" page="1" pageScale="1" pageWidth="850" pageHeight="1100" math="0" shadow="0">
      <root>
        <mxCell id="0" />
        <mxCell id="1" parent="0" />
        <mxCell id="yYMZbEtgyaG03sluP8aX-1" value="&lt;b&gt;&lt;font style=&quot;font-size: 16px;&quot;&gt;Category&lt;/font&gt;&lt;/b&gt;" style="rounded=0;whiteSpace=wrap;html=1;" vertex="1" parent="1">
          <mxGeometry x="720" y="40" width="120" height="40" as="geometry" />
        </mxCell>
        <mxCell id="yYMZbEtgyaG03sluP8aX-2" value="&lt;b style=&quot;&quot;&gt;Online Shopping&lt;br&gt;Website&lt;/b&gt;" style="rounded=0;whiteSpace=wrap;html=1;fontSize=16;" vertex="1" parent="1">
          <mxGeometry x="380" y="160" width="220" height="80" as="geometry" />
        </mxCell>
        <mxCell id="yYMZbEtgyaG03sluP8aX-3" value="&lt;b&gt;belong&lt;/b&gt;" style="rhombus;whiteSpace=wrap;html=1;fontSize=16;" vertex="1" parent="1">
          <mxGeometry x="160" y="160" width="120" height="80" as="geometry" />
        </mxCell>
        <mxCell id="yYMZbEtgyaG03sluP8aX-4" value="" style="endArrow=none;html=1;rounded=0;fontSize=16;entryX=0;entryY=0.5;entryDx=0;entryDy=0;exitX=1;exitY=0.5;exitDx=0;exitDy=0;" edge="1" parent="1" source="yYMZbEtgyaG03sluP8aX-3" target="yYMZbEtgyaG03sluP8aX-2">
          <mxGeometry width="50" height="50" relative="1" as="geometry">
            <mxPoint x="290" y="230" as="sourcePoint" />
            <mxPoint x="340" y="180" as="targetPoint" />
          </mxGeometry>
        </mxCell>
        <mxCell id="yYMZbEtgyaG03sluP8aX-5" value="" style="endArrow=none;html=1;rounded=0;fontSize=16;entryX=0;entryY=0.5;entryDx=0;entryDy=0;" edge="1" parent="1" target="yYMZbEtgyaG03sluP8aX-3">
          <mxGeometry width="50" height="50" relative="1" as="geometry">
            <mxPoint x="50" y="200" as="sourcePoint" />
            <mxPoint x="160" y="170" as="targetPoint" />
          </mxGeometry>
        </mxCell>
        <mxCell id="yYMZbEtgyaG03sluP8aX-6" value="&lt;b&gt;Customer&lt;/b&gt;" style="rounded=0;whiteSpace=wrap;html=1;fontSize=16;" vertex="1" parent="1">
          <mxGeometry x="-70" y="180" width="120" height="40" as="geometry" />
        </mxCell>
        <mxCell id="yYMZbEtgyaG03sluP8aX-8" value="" style="endArrow=none;html=1;rounded=0;fontSize=16;entryX=0;entryY=0.5;entryDx=0;entryDy=0;" edge="1" parent="1" target="yYMZbEtgyaG03sluP8aX-1">
          <mxGeometry width="50" height="50" relative="1" as="geometry">
            <mxPoint x="540" y="60" as="sourcePoint" />
            <mxPoint x="630" y="30" as="targetPoint" />
          </mxGeometry>
        </mxCell>
        <mxCell id="yYMZbEtgyaG03sluP8aX-9" value="&lt;b&gt;has&lt;/b&gt;" style="rhombus;whiteSpace=wrap;html=1;fontSize=16;" vertex="1" parent="1">
          <mxGeometry x="460" y="20" width="80" height="80" as="geometry" />
        </mxCell>
        <mxCell id="yYMZbEtgyaG03sluP8aX-12" value="" style="endArrow=none;html=1;rounded=0;fontSize=16;entryX=0.5;entryY=1;entryDx=0;entryDy=0;" edge="1" parent="1" target="yYMZbEtgyaG03sluP8aX-9">
          <mxGeometry width="50" height="50" relative="1" as="geometry">
            <mxPoint x="500" y="160" as="sourcePoint" />
            <mxPoint x="240" y="20" as="targetPoint" />
          </mxGeometry>
        </mxCell>
        <mxCell id="yYMZbEtgyaG03sluP8aX-15" value="" style="endArrow=none;html=1;rounded=0;fontSize=16;entryX=0.5;entryY=1;entryDx=0;entryDy=0;" edge="1" parent="1" target="yYMZbEtgyaG03sluP8aX-1">
          <mxGeometry width="50" height="50" relative="1" as="geometry">
            <mxPoint x="780" y="200" as="sourcePoint" />
            <mxPoint x="780" y="120" as="targetPoint" />
          </mxGeometry>
        </mxCell>
        <mxCell id="yYMZbEtgyaG03sluP8aX-16" value="&lt;b&gt;has&lt;/b&gt;" style="rhombus;whiteSpace=wrap;html=1;fontSize=16;" vertex="1" parent="1">
          <mxGeometry x="740" y="200" width="80" height="80" as="geometry" />
        </mxCell>
        <mxCell id="yYMZbEtgyaG03sluP8aX-17" value="&lt;b&gt;product&lt;/b&gt;" style="rounded=0;whiteSpace=wrap;html=1;fontSize=16;" vertex="1" parent="1">
          <mxGeometry x="720" y="370" width="120" height="40" as="geometry" />
        </mxCell>
        <mxCell id="yYMZbEtgyaG03sluP8aX-18" value="" style="endArrow=none;html=1;rounded=0;fontSize=16;entryX=0.5;entryY=1;entryDx=0;entryDy=0;exitX=0.5;exitY=0;exitDx=0;exitDy=0;" edge="1" parent="1" source="yYMZbEtgyaG03sluP8aX-17" target="yYMZbEtgyaG03sluP8aX-16">
          <mxGeometry width="50" height="50" relative="1" as="geometry">
            <mxPoint x="530" y="420" as="sourcePoint" />
            <mxPoint x="580" y="370" as="targetPoint" />
          </mxGeometry>
        </mxCell>
        <mxCell id="yYMZbEtgyaG03sluP8aX-19" value="" style="endArrow=none;html=1;rounded=0;fontSize=16;entryX=0;entryY=0.5;entryDx=0;entryDy=0;exitX=1;exitY=0.5;exitDx=0;exitDy=0;" edge="1" parent="1" source="yYMZbEtgyaG03sluP8aX-20" target="yYMZbEtgyaG03sluP8aX-17">
          <mxGeometry width="50" height="50" relative="1" as="geometry">
            <mxPoint x="380" y="340" as="sourcePoint" />
            <mxPoint x="100" y="270" as="targetPoint" />
          </mxGeometry>
        </mxCell>
        <mxCell id="yYMZbEtgyaG03sluP8aX-20" value="&lt;b&gt;buy&lt;/b&gt;" style="rhombus;whiteSpace=wrap;html=1;fontSize=16;" vertex="1" parent="1">
          <mxGeometry x="310" y="270" width="80" height="80" as="geometry" />
        </mxCell>
        <mxCell id="yYMZbEtgyaG03sluP8aX-21" value="" style="endArrow=none;html=1;rounded=0;fontSize=16;entryX=0.75;entryY=1;entryDx=0;entryDy=0;exitX=0;exitY=0.5;exitDx=0;exitDy=0;" edge="1" parent="1" source="yYMZbEtgyaG03sluP8aX-20" target="yYMZbEtgyaG03sluP8aX-6">
          <mxGeometry width="50" height="50" relative="1" as="geometry">
            <mxPoint x="-80" y="370" as="sourcePoint" />
            <mxPoint x="-30" y="320" as="targetPoint" />
          </mxGeometry>
        </mxCell>
        <mxCell id="yYMZbEtgyaG03sluP8aX-22" value="" style="endArrow=none;html=1;rounded=0;fontSize=16;entryX=0.429;entryY=0.996;entryDx=0;entryDy=0;entryPerimeter=0;exitX=0.5;exitY=0;exitDx=0;exitDy=0;" edge="1" parent="1" source="yYMZbEtgyaG03sluP8aX-23" target="yYMZbEtgyaG03sluP8aX-6">
          <mxGeometry width="50" height="50" relative="1" as="geometry">
            <mxPoint x="-23" y="380" as="sourcePoint" />
            <mxPoint y="320" as="targetPoint" />
          </mxGeometry>
        </mxCell>
        <mxCell id="yYMZbEtgyaG03sluP8aX-23" value="&lt;b&gt;done&lt;br&gt;for&lt;/b&gt;" style="rhombus;whiteSpace=wrap;html=1;fontSize=16;" vertex="1" parent="1">
          <mxGeometry x="-60" y="420" width="80" height="80" as="geometry" />
        </mxCell>
        <mxCell id="yYMZbEtgyaG03sluP8aX-24" value="" style="endArrow=none;html=1;rounded=0;fontSize=16;entryX=0.5;entryY=1;entryDx=0;entryDy=0;" edge="1" parent="1" target="yYMZbEtgyaG03sluP8aX-23">
          <mxGeometry width="50" height="50" relative="1" as="geometry">
            <mxPoint x="-20" y="650" as="sourcePoint" />
            <mxPoint x="-10" y="530" as="targetPoint" />
          </mxGeometry>
        </mxCell>
        <mxCell id="yYMZbEtgyaG03sluP8aX-25" value="" style="endArrow=none;html=1;rounded=0;fontSize=16;entryX=0.5;entryY=1;entryDx=0;entryDy=0;startArrow=none;" edge="1" parent="1" source="yYMZbEtgyaG03sluP8aX-26" target="yYMZbEtgyaG03sluP8aX-17">
          <mxGeometry width="50" height="50" relative="1" as="geometry">
            <mxPoint x="780" y="560" as="sourcePoint" />
            <mxPoint x="800" y="450" as="targetPoint" />
          </mxGeometry>
        </mxCell>
        <mxCell id="yYMZbEtgyaG03sluP8aX-26" value="&lt;b&gt;added&lt;br&gt;item&lt;/b&gt;" style="rhombus;whiteSpace=wrap;html=1;fontSize=16;" vertex="1" parent="1">
          <mxGeometry x="730" y="500" width="100" height="80" as="geometry" />
        </mxCell>
        <mxCell id="yYMZbEtgyaG03sluP8aX-28" value="" style="endArrow=none;html=1;rounded=0;fontSize=16;entryX=0.5;entryY=1;entryDx=0;entryDy=0;" edge="1" parent="1" target="yYMZbEtgyaG03sluP8aX-26">
          <mxGeometry width="50" height="50" relative="1" as="geometry">
            <mxPoint x="780" y="650" as="sourcePoint" />
            <mxPoint x="690" y="620" as="targetPoint" />
          </mxGeometry>
        </mxCell>
        <mxCell id="yYMZbEtgyaG03sluP8aX-29" value="" style="endArrow=none;html=1;rounded=0;fontSize=16;entryX=0;entryY=0.5;entryDx=0;entryDy=0;exitX=1;exitY=0.5;exitDx=0;exitDy=0;" edge="1" parent="1" source="yYMZbEtgyaG03sluP8aX-30" target="yYMZbEtgyaG03sluP8aX-32">
          <mxGeometry width="50" height="50" relative="1" as="geometry">
            <mxPoint x="60" y="680" as="sourcePoint" />
            <mxPoint x="340" y="680" as="targetPoint" />
          </mxGeometry>
        </mxCell>
        <mxCell id="yYMZbEtgyaG03sluP8aX-30" value="&lt;b&gt;&lt;font style=&quot;font-size: 16px;&quot;&gt;cart&lt;/font&gt;&lt;/b&gt;" style="rounded=0;whiteSpace=wrap;html=1;fontSize=16;" vertex="1" parent="1">
          <mxGeometry x="-80" y="650" width="130" height="50" as="geometry" />
        </mxCell>
        <mxCell id="yYMZbEtgyaG03sluP8aX-32" value="&lt;b&gt;done&lt;br&gt;for&lt;/b&gt;" style="rhombus;whiteSpace=wrap;html=1;fontSize=16;" vertex="1" parent="1">
          <mxGeometry x="340" y="627.5" width="100" height="95" as="geometry" />
        </mxCell>
        <mxCell id="yYMZbEtgyaG03sluP8aX-34" value="" style="endArrow=none;html=1;rounded=0;fontSize=16;exitX=1;exitY=0.5;exitDx=0;exitDy=0;" edge="1" parent="1" source="yYMZbEtgyaG03sluP8aX-32">
          <mxGeometry width="50" height="50" relative="1" as="geometry">
            <mxPoint x="550" y="700" as="sourcePoint" />
            <mxPoint x="710" y="675" as="targetPoint" />
          </mxGeometry>
        </mxCell>
        <mxCell id="yYMZbEtgyaG03sluP8aX-35" value="" style="endArrow=none;html=1;rounded=0;fontSize=16;exitX=0.893;exitY=-0.004;exitDx=0;exitDy=0;exitPerimeter=0;entryX=0;entryY=0.5;entryDx=0;entryDy=0;" edge="1" parent="1" source="yYMZbEtgyaG03sluP8aX-1" target="yYMZbEtgyaG03sluP8aX-36">
          <mxGeometry width="50" height="50" relative="1" as="geometry">
            <mxPoint x="790" y="30" as="sourcePoint" />
            <mxPoint x="870" y="-40" as="targetPoint" />
          </mxGeometry>
        </mxCell>
        <mxCell id="yYMZbEtgyaG03sluP8aX-36" value="&lt;b&gt;Category&lt;br&gt;Name&lt;/b&gt;" style="ellipse;whiteSpace=wrap;html=1;fontSize=16;" vertex="1" parent="1">
          <mxGeometry x="890" y="-30" width="110" height="50" as="geometry" />
        </mxCell>
        <mxCell id="yYMZbEtgyaG03sluP8aX-37" value="&lt;b&gt;Id&lt;/b&gt;" style="ellipse;whiteSpace=wrap;html=1;fontSize=16;" vertex="1" parent="1">
          <mxGeometry x="800" y="-100" width="110" height="50" as="geometry" />
        </mxCell>
        <mxCell id="yYMZbEtgyaG03sluP8aX-38" value="" style="endArrow=none;html=1;rounded=0;fontSize=16;entryX=0;entryY=1;entryDx=0;entryDy=0;exitX=0.5;exitY=0;exitDx=0;exitDy=0;" edge="1" parent="1" source="yYMZbEtgyaG03sluP8aX-1" target="yYMZbEtgyaG03sluP8aX-37">
          <mxGeometry width="50" height="50" relative="1" as="geometry">
            <mxPoint x="790" y="30" as="sourcePoint" />
            <mxPoint x="500" y="-150" as="targetPoint" />
          </mxGeometry>
        </mxCell>
        <mxCell id="yYMZbEtgyaG03sluP8aX-39" value="" style="endArrow=none;html=1;rounded=0;fontSize=16;exitX=0.75;exitY=0;exitDx=0;exitDy=0;entryX=0.273;entryY=0.997;entryDx=0;entryDy=0;entryPerimeter=0;" edge="1" parent="1" source="yYMZbEtgyaG03sluP8aX-17" target="yYMZbEtgyaG03sluP8aX-40">
          <mxGeometry width="50" height="50" relative="1" as="geometry">
            <mxPoint x="870" y="360" as="sourcePoint" />
            <mxPoint x="890" y="300" as="targetPoint" />
          </mxGeometry>
        </mxCell>
        <mxCell id="yYMZbEtgyaG03sluP8aX-40" value="&lt;b&gt;Pid&lt;/b&gt;" style="ellipse;whiteSpace=wrap;html=1;fontSize=16;" vertex="1" parent="1">
          <mxGeometry x="840" y="240" width="115" height="50" as="geometry" />
        </mxCell>
        <mxCell id="yYMZbEtgyaG03sluP8aX-41" value="" style="endArrow=none;html=1;rounded=0;fontSize=16;exitX=1;exitY=0;exitDx=0;exitDy=0;" edge="1" parent="1" source="yYMZbEtgyaG03sluP8aX-17">
          <mxGeometry width="50" height="50" relative="1" as="geometry">
            <mxPoint x="1020" y="400" as="sourcePoint" />
            <mxPoint x="920" y="330" as="targetPoint" />
          </mxGeometry>
        </mxCell>
        <mxCell id="yYMZbEtgyaG03sluP8aX-43" value="&lt;b&gt;Name&lt;/b&gt;" style="ellipse;whiteSpace=wrap;html=1;fontSize=16;" vertex="1" parent="1">
          <mxGeometry x="910" y="290" width="115" height="50" as="geometry" />
        </mxCell>
        <mxCell id="yYMZbEtgyaG03sluP8aX-44" value="" style="endArrow=none;html=1;rounded=0;fontSize=16;exitX=1;exitY=0.5;exitDx=0;exitDy=0;" edge="1" parent="1" source="yYMZbEtgyaG03sluP8aX-17">
          <mxGeometry width="50" height="50" relative="1" as="geometry">
            <mxPoint x="710" y="560" as="sourcePoint" />
            <mxPoint x="1020" y="360" as="targetPoint" />
          </mxGeometry>
        </mxCell>
        <mxCell id="yYMZbEtgyaG03sluP8aX-45" value="&lt;b&gt;Category&lt;/b&gt;" style="ellipse;whiteSpace=wrap;html=1;fontSize=16;" vertex="1" parent="1">
          <mxGeometry x="1010" y="330" width="115" height="50" as="geometry" />
        </mxCell>
        <mxCell id="yYMZbEtgyaG03sluP8aX-46" value="" style="endArrow=none;html=1;rounded=0;fontSize=16;exitX=1;exitY=0.75;exitDx=0;exitDy=0;" edge="1" parent="1" source="yYMZbEtgyaG03sluP8aX-17">
          <mxGeometry width="50" height="50" relative="1" as="geometry">
            <mxPoint x="710" y="420" as="sourcePoint" />
            <mxPoint x="1030" y="420" as="targetPoint" />
          </mxGeometry>
        </mxCell>
        <mxCell id="yYMZbEtgyaG03sluP8aX-47" value="&lt;b&gt;Price&lt;/b&gt;" style="ellipse;whiteSpace=wrap;html=1;fontSize=16;" vertex="1" parent="1">
          <mxGeometry x="1025" y="390" width="115" height="50" as="geometry" />
        </mxCell>
        <mxCell id="yYMZbEtgyaG03sluP8aX-48" value="" style="endArrow=none;html=1;rounded=0;fontSize=16;exitX=1;exitY=1;exitDx=0;exitDy=0;" edge="1" parent="1" source="yYMZbEtgyaG03sluP8aX-17">
          <mxGeometry width="50" height="50" relative="1" as="geometry">
            <mxPoint x="960" y="500" as="sourcePoint" />
            <mxPoint x="1010" y="460" as="targetPoint" />
          </mxGeometry>
        </mxCell>
        <mxCell id="yYMZbEtgyaG03sluP8aX-49" value="&lt;b&gt;Active&lt;/b&gt;" style="ellipse;whiteSpace=wrap;html=1;fontSize=16;" vertex="1" parent="1">
          <mxGeometry x="1000" y="450" width="115" height="50" as="geometry" />
        </mxCell>
        <mxCell id="yYMZbEtgyaG03sluP8aX-50" value="" style="endArrow=none;html=1;rounded=0;fontSize=16;exitX=0.929;exitY=0.996;exitDx=0;exitDy=0;exitPerimeter=0;" edge="1" parent="1" source="yYMZbEtgyaG03sluP8aX-17">
          <mxGeometry width="50" height="50" relative="1" as="geometry">
            <mxPoint x="710" y="560" as="sourcePoint" />
            <mxPoint x="990" y="520" as="targetPoint" />
          </mxGeometry>
        </mxCell>
        <mxCell id="yYMZbEtgyaG03sluP8aX-51" value="&lt;b&gt;Quantity&lt;/b&gt;" style="ellipse;whiteSpace=wrap;html=1;fontSize=16;" vertex="1" parent="1">
          <mxGeometry x="970" y="515" width="115" height="50" as="geometry" />
        </mxCell>
        <mxCell id="yYMZbEtgyaG03sluP8aX-52" value="" style="endArrow=none;html=1;rounded=0;fontSize=16;entryX=0.75;entryY=1;entryDx=0;entryDy=0;" edge="1" parent="1" target="yYMZbEtgyaG03sluP8aX-17">
          <mxGeometry width="50" height="50" relative="1" as="geometry">
            <mxPoint x="920" y="550" as="sourcePoint" />
            <mxPoint x="890" y="490" as="targetPoint" />
          </mxGeometry>
        </mxCell>
        <mxCell id="yYMZbEtgyaG03sluP8aX-53" value="&lt;b&gt;Image&lt;/b&gt;" style="ellipse;whiteSpace=wrap;html=1;fontSize=16;" vertex="1" parent="1">
          <mxGeometry x="870" y="550" width="115" height="50" as="geometry" />
        </mxCell>
        <mxCell id="yYMZbEtgyaG03sluP8aX-54" value="&lt;b&gt;Cart&lt;br&gt;Item&lt;/b&gt;" style="rounded=0;whiteSpace=wrap;html=1;fontSize=16;" vertex="1" parent="1">
          <mxGeometry x="710" y="650" width="130" height="47" as="geometry" />
        </mxCell>
        <mxCell id="yYMZbEtgyaG03sluP8aX-55" value="M" style="text;html=1;strokeColor=none;fillColor=none;align=center;verticalAlign=middle;whiteSpace=wrap;rounded=0;fontSize=16;" vertex="1" parent="1">
          <mxGeometry x="600" y="20" width="60" height="30" as="geometry" />
        </mxCell>
        <mxCell id="yYMZbEtgyaG03sluP8aX-56" value="M" style="text;html=1;strokeColor=none;fillColor=none;align=center;verticalAlign=middle;whiteSpace=wrap;rounded=0;fontSize=16;" vertex="1" parent="1">
          <mxGeometry x="780" y="310" width="60" height="30" as="geometry" />
        </mxCell>
        <mxCell id="yYMZbEtgyaG03sluP8aX-57" value="M" style="text;html=1;strokeColor=none;fillColor=none;align=center;verticalAlign=middle;whiteSpace=wrap;rounded=0;fontSize=16;" vertex="1" parent="1">
          <mxGeometry x="770" y="460" width="60" height="30" as="geometry" />
        </mxCell>
        <mxCell id="yYMZbEtgyaG03sluP8aX-58" value="M" style="text;html=1;strokeColor=none;fillColor=none;align=center;verticalAlign=middle;whiteSpace=wrap;rounded=0;fontSize=16;" vertex="1" parent="1">
          <mxGeometry x="550" y="627.5" width="60" height="30" as="geometry" />
        </mxCell>
        <mxCell id="yYMZbEtgyaG03sluP8aX-59" value="M" style="text;html=1;strokeColor=none;fillColor=none;align=center;verticalAlign=middle;whiteSpace=wrap;rounded=0;fontSize=16;" vertex="1" parent="1">
          <mxGeometry x="190" y="627.5" width="60" height="30" as="geometry" />
        </mxCell>
        <mxCell id="yYMZbEtgyaG03sluP8aX-60" value="M" style="text;html=1;strokeColor=none;fillColor=none;align=center;verticalAlign=middle;whiteSpace=wrap;rounded=0;fontSize=16;" vertex="1" parent="1">
          <mxGeometry x="-90" y="310" width="60" height="30" as="geometry" />
        </mxCell>
        <mxCell id="yYMZbEtgyaG03sluP8aX-61" value="M" style="text;html=1;strokeColor=none;fillColor=none;align=center;verticalAlign=middle;whiteSpace=wrap;rounded=0;fontSize=16;" vertex="1" parent="1">
          <mxGeometry x="-90" y="550" width="60" height="30" as="geometry" />
        </mxCell>
        <mxCell id="yYMZbEtgyaG03sluP8aX-62" value="M" style="text;html=1;strokeColor=none;fillColor=none;align=center;verticalAlign=middle;whiteSpace=wrap;rounded=0;fontSize=16;" vertex="1" parent="1">
          <mxGeometry x="80" y="160" width="60" height="30" as="geometry" />
        </mxCell>
        <mxCell id="yYMZbEtgyaG03sluP8aX-63" value="1" style="text;html=1;strokeColor=none;fillColor=none;align=center;verticalAlign=middle;whiteSpace=wrap;rounded=0;fontSize=16;" vertex="1" parent="1">
          <mxGeometry x="290" y="160" width="60" height="30" as="geometry" />
        </mxCell>
        <mxCell id="yYMZbEtgyaG03sluP8aX-64" value="1" style="text;html=1;strokeColor=none;fillColor=none;align=center;verticalAlign=middle;whiteSpace=wrap;rounded=0;fontSize=16;" vertex="1" parent="1">
          <mxGeometry x="210" y="250" width="60" height="30" as="geometry" />
        </mxCell>
        <mxCell id="yYMZbEtgyaG03sluP8aX-65" value="1" style="text;html=1;strokeColor=none;fillColor=none;align=center;verticalAlign=middle;whiteSpace=wrap;rounded=0;fontSize=16;" vertex="1" parent="1">
          <mxGeometry x="500" y="100" width="60" height="30" as="geometry" />
        </mxCell>
        <mxCell id="yYMZbEtgyaG03sluP8aX-67" value="1" style="text;html=1;strokeColor=none;fillColor=none;align=center;verticalAlign=middle;whiteSpace=wrap;rounded=0;fontSize=16;" vertex="1" parent="1">
          <mxGeometry x="710" y="590" width="60" height="30" as="geometry" />
        </mxCell>
        <mxCell id="yYMZbEtgyaG03sluP8aX-68" value="1" style="text;html=1;strokeColor=none;fillColor=none;align=center;verticalAlign=middle;whiteSpace=wrap;rounded=0;fontSize=16;" vertex="1" parent="1">
          <mxGeometry x="790" y="140" width="60" height="30" as="geometry" />
        </mxCell>
      </root>
    </mxGraphModel>
  </diagram>
</mxfile>
